<svg width="24" height="24" version="1.1" viewBox="0 0 24 24" xml:space="preserve" xmlns="http://www.w3.org/2000/svg"><g transform="scale(.48336)"><path d="m29.35 21.298c-2.125 0-3.074 1.168-3.605 1.988v-1.704h-4.002c0.052 1.128 0 12.041 0 12.041h4.002v-6.727c0-0.359 0.023-0.72 0.131-0.977 0.29-0.72 0.948-1.465 2.054-1.465 1.448 0 2.027 1.104 2.027 2.724v6.442h4.003v-6.905c-2e-3 -3.696-1.977-5.417-4.61-5.417zm-3.608 2.03h-0.025c8e-3 -0.014 0.02-0.027 0.025-0.041z"/><rect x="15.523" y="21.582" width="4.002" height="12.041"/><path d="m24.826 0c-13.689 0-24.826 11.137-24.826 24.826 0 13.688 11.137 24.826 24.826 24.826 13.688 0 24.826-11.138 24.826-24.826 0-13.689-11.136-24.826-24.826-24.826zm13.165 36.055c0 1.056-0.876 1.91-1.959 1.91h-22.581c-1.08 0-1.957-0.854-1.957-1.91v-22.844c0-1.055 0.877-1.91 1.957-1.91h22.581c1.082 0 1.959 0.856 1.959 1.91z"/><path d="m17.551 15.777c-1.368 0-2.264 0.898-2.264 2.08 0 1.155 0.869 2.08 2.211 2.08h0.026c1.396 0 2.265-0.925 2.265-2.08-0.027-1.181-0.868-2.08-2.238-2.08z"/></g></svg>
